<?xml version="1.0" encoding="UTF-8"?>
<svg width="439px" height="40px" viewBox="0 0 439 40" version="1.1" xmlns="http://www.w3.org/2000/svg" xmlns:xlink="http://www.w3.org/1999/xlink">
    <title>Horizontal_white_RGB</title>
    <g id="Symbols" stroke="none" stroke-width="1" fill="none" fill-rule="evenodd">
        <g id="Footer" transform="translate(-80.000000, -110.000000)" fill="#FFFFFF" fill-rule="nonzero">
            <g id="Group-23" transform="translate(80.000000, 94.000000)">
                <g id="Horizontal_white_RGB" transform="translate(0.000000, 16.000000)">
                    <g id="Group" transform="translate(-0.000000, 0.000000)">
                        <polygon id="Path" points="0.981339294 2.13132445 0.981339294 3.28223966 3.7973564 6.39397336 3.7973564 27.8777239 2.84486711e-14 28.9433861 2.84486711e-14 30.2221808 10.2400622 30.2221808 10.2400622 28.9433861 6.99737584 28.0908563 6.18670425 27.0678206 6.18670425 9.12206866 24.0641462 30.4353132 25.6428224 30.4353132 25.6428224 4.85941976 29.4401788 3.70850455 29.4401788 2.38708339 19.0721159 2.38708339 19.0721159 3.87901051 22.3574691 4.6889138 23.1681407 5.71194954 23.1681407 22.7199187 23.1681407 22.6772922 22.9548061 22.6772922 5.58936729 2.13132445"></polygon>
                        <path d="M39.2962387,30.6910721 C34.2615415,30.6910721 29.3975119,27.451459 29.3975119,20.5459677 C29.3975119,13.683103 34.517543,10.2303574 39.2962387,10.2303574 C44.2456021,10.2303574 49.2802993,13.3420911 49.2802993,20.2049558 C49.2802993,26.8120616 43.9896005,30.6910721 39.2962387,30.6910721 Z M45.3549422,20.8017267 C45.3549422,16.1128129 42.7949266,12.1059229 38.7415687,12.1059229 C35.11488,12.1059229 33.3228691,15.2602831 33.3228691,19.9491969 C33.3228691,24.6381107 35.5842162,28.7728801 39.8509087,28.7728801 C43.4775974,28.7728801 45.3549422,25.4906405 45.3549422,20.8017267 Z" id="Shape"></path>
                        <path d="M100.096608,18.7556552 C100.096608,14.0667414 97.4512586,13.1289586 94.37924,13.1289586 C91.7765575,13.1289586 90.0698805,15.0471506 90.0698805,15.0471506 L90.0698805,18.1588843 L90.0698805,27.1530735 L90.880552,28.1761093 L93.6112353,29.113892 L93.6112353,30.1795543 L83.7978424,30.1795543 L83.7978424,29.113892 L86.5711925,28.0482298 L86.5711925,7.75802101 C86.5711925,4.09214295 85.6325202,3.06910721 83.6271747,3.06910721 L83.6271747,2.08869797 L89.8565458,0 L90.2832151,0 C90.2832151,0 90.0698805,4.34790189 90.0698805,7.58751506 L90.0698805,13.4273441 C90.0698805,13.4273441 94.1232384,10.1877309 96.8965886,10.1877309 C100.35261,10.1877309 103.552629,11.6370315 103.552629,16.7095837 L103.552629,27.1530735 L104.363301,28.1761093 L107.093984,29.113892 L107.093984,30.1795543 L97.2805909,30.1795543 L97.2805909,29.113892 L99.9686073,28.0908563 L100.096608,18.7556552 Z" id="Path"></path>
                        <path d="M139.862183,19.3950525 C139.862183,25.2348815 143.190203,27.6645914 146.98756,27.6645914 C149.33424,27.6645914 152.150258,26.6841822 152.150258,26.6841822 L152.576927,27.4940855 C151.552921,28.5171212 148.736903,30.6484456 145.195549,30.6484456 C140.416853,30.6484456 136.107493,27.0678206 136.107493,20.5033412 C136.107493,14.5356328 140.246185,10.1877309 145.366216,10.1877309 C149.376907,10.1877309 152.491593,12.5748143 152.491593,17.1358486 C152.491593,18.3293903 152.278258,19.352426 152.278258,19.352426 L139.862183,19.352426 L139.862183,19.3950525 Z M146.048887,17.8178724 C148.054233,17.7326195 148.77957,17.3489811 148.77957,15.3029096 C148.77957,13.5552235 147.499563,12.1911759 144.811546,12.1911759 C141.995529,12.1911759 139.862183,14.6635122 139.862183,18.0310049 L146.048887,17.8178724 Z" id="Shape"></path>
                        <path d="M157.099621,29.9237953 C156.800952,29.7959159 156.032948,29.369651 155.990281,28.4744947 L155.734279,24.4676047 L157.568957,24.4676047 C158.08096,27.1957 159.915638,28.9860126 162.304986,28.9860126 C164.737001,28.9860126 165.71834,27.7072179 165.71834,26.0447848 C165.71834,24.4249782 164.395665,23.615075 162.816989,22.7625452 L160.683643,21.6542565 C157.611624,20.0770764 156.075615,18.8409082 156.075615,15.8144274 C156.075615,12.0206699 158.806298,10.2303574 163.072991,10.2303574 C166.059675,10.2303574 168.363689,11.3812726 168.363689,11.3812726 L167.809019,16.2833188 L166.102342,16.2833188 C166.102342,13.2142116 164.822335,12.0632964 162.262319,12.0632964 C160.555642,12.0632964 158.934299,12.7453202 158.934299,14.4077533 C158.934299,15.771801 159.488969,16.3259453 162.816989,18.0736314 L164.694334,19.0540406 C168.150355,20.8017267 169.131694,22.2936538 169.131694,25.1496286 C169.131694,28.6023742 165.675673,30.6484456 162.304986,30.6484456 C160.214307,30.6910721 158.336962,30.4353132 157.099621,29.9237953 Z" id="Path"></path>
                        <path d="M190.209155,19.3950525 C190.209155,25.2348815 193.537176,27.6645914 197.334532,27.6645914 C199.681213,27.6645914 202.49723,26.6841822 202.49723,26.6841822 L202.923899,27.4940855 C201.899893,28.5171212 199.083876,30.6484456 195.542521,30.6484456 C190.763825,30.6484456 186.454466,27.0678206 186.454466,20.5033412 C186.454466,14.5356328 190.593158,10.1877309 195.713189,10.1877309 C199.72388,10.1877309 202.838565,12.5748143 202.838565,17.1358486 C202.838565,18.3293903 202.625231,19.352426 202.625231,19.352426 L190.209155,19.352426 L190.209155,19.3950525 Z M196.39586,17.8178724 C198.401205,17.7326195 199.126543,17.3489811 199.126543,15.3029096 C199.126543,13.5552235 197.846535,12.1911759 195.158519,12.1911759 C192.342502,12.1911759 190.209155,14.6635122 190.209155,18.0310049 L196.39586,17.8178724 Z" id="Shape"></path>
                        <path d="M242.006803,28.1761093 L241.196132,27.1530735 L241.238799,16.4964513 C241.238799,11.594405 238.038779,10.1877309 234.753426,10.1877309 C231.980076,10.1877309 228.054719,13.4273441 228.054719,13.4273441 C228.054719,11.679658 228.140052,10.0598514 228.140052,10.0598514 L227.798717,10.0598514 L221.65468,12.2764289 L221.65468,13.2994646 C224.001361,13.2994646 224.641365,15.3881626 224.641365,19.1819201 L224.641365,28.0056033 L221.868014,29.0712656 L221.868014,30.1795543 L231.553407,30.1795543 L231.63874,29.113892 L228.908057,28.1761093 L228.097386,27.1530735 L228.097386,15.0897771 C228.097386,15.0897771 229.590728,13.1289586 232.236077,13.1289586 C234.966761,13.1289586 237.782778,14.1093679 237.782778,18.7556552 L237.654777,28.0908563 L234.966761,29.113892 L234.966761,30.2221808 L244.652153,30.2221808 L244.737487,29.1565185 L242.006803,28.1761093 Z" id="Path"></path>
                        <path d="M125.18476,30.4353132 L120.662066,17.9457519 L115.499368,30.4353132 L113.750024,30.4353132 L108.67266,15.0045242 C107.947322,13.0863321 107.56332,11.9354169 106.197978,11.9354169 L106.197978,10.7418752 L114.518029,10.7418752 L114.518029,11.9354169 L112.00068,12.7453202 L115.798037,25.533267 L119.126057,17.5621135 L119.894062,15.516042 L118.742055,12.2764289 L117.291379,11.9354169 L117.291379,10.7418752 L125.312761,10.7418752 L125.312761,12.0206699 L122.795413,12.7879467 L127.062105,25.5758934 L131.499465,12.8731997 L128.640781,11.850164 L128.640781,10.7418752 L136.192827,10.7418752 L136.192827,11.9354169 C134.48615,12.1485494 133.632812,12.6174408 132.26747,16.0701864 L127.190106,30.4353132 L125.18476,30.4353132 Z" id="Path"></path>
                        <path d="M81.4511614,27.3235795 C81.4511614,27.3235795 80.2564875,28.0908563 78.5071436,28.0908563 C76.6297988,28.0908563 74.8804549,27.0251941 74.9231218,24.4249782 L75.0937895,13.4273441 L81.3231607,13.4273441 L81.3231607,13.4273441 L81.3658276,13.4273441 L81.4511614,12.7453202 L81.4511614,12.7453202 L81.8778307,9.29257462 L81.0671591,9.16469515 L80.4698221,10.4861163 L80.1284867,10.7845017 L75.1791233,10.9976342 L75.1791233,10.9976342 L75.1364564,10.9976342 L75.1364564,5.88245549 L72.7044416,6.30872038 L71.6377685,11.0402607 L68.1817475,11.3812726 L68.1817475,13.0010792 C70.0590922,13.0010792 71.6377685,13.1715851 71.6377685,14.9618977 C71.6377685,16.7522102 71.4671008,22.4641597 71.4671008,24.7233637 C71.4671008,29.0286391 73.088444,30.6058192 75.8617941,30.6058192 C78.2084751,30.6058192 80.1711537,29.6254099 81.9204976,28.2187358 L81.4511614,27.3235795 Z" id="Path"></path>
                        <path d="M184.534454,27.3235795 C184.534454,27.3235795 183.33978,28.0908563 181.590436,28.0908563 C179.713092,28.0908563 177.963748,27.0251941 178.006415,24.4249782 L178.177082,13.4273441 L184.406453,13.4273441 L184.406453,13.4273441 L184.406453,13.4273441 L184.491787,12.7453202 L184.491787,12.7453202 L184.918457,9.29257462 L184.107785,9.16469515 L183.510448,10.4861163 L183.169113,10.7845017 L178.219749,10.9976342 L178.219749,10.9976342 L178.219749,10.9976342 L178.219749,5.88245549 L175.787734,6.30872038 L174.721061,11.0402607 L171.26504,11.3812726 L171.26504,13.0010792 C173.142385,13.0010792 174.721061,13.1715851 174.721061,14.9618977 C174.721061,16.7522102 174.550394,22.4641597 174.550394,24.7233637 C174.550394,29.0286391 176.171737,30.6058192 178.945087,30.6058192 C181.291768,30.6058192 183.254446,29.6254099 185.00379,28.2187358 L184.534454,27.3235795 Z" id="Path"></path>
                        <path d="M65.7923997,10.4861163 L65.7923997,10.4861163 L65.7923997,10.4861163 C65.7497327,10.4861163 65.0670619,10.2303574 63.7017203,10.2303574 C60.7577024,10.2303574 57.6856837,14.8766447 57.6856837,14.8766447 C57.6856837,12.3190553 57.7710176,10.1451044 57.7710176,10.1451044 L57.4296822,10.1451044 L51.4136456,12.3616818 L51.4136456,13.3847176 C53.6749927,13.3847176 54.4003304,15.430789 54.4003304,18.9261612 L54.4003304,28.0908563 L51.6269803,29.1565185 L51.6269803,30.2648072 L61.3123724,30.2648072 L61.3123724,29.199145 L58.5816892,28.2613623 L57.7710176,27.2383265 L57.7710176,18.2441373 C57.7710176,15.4734155 59.9470308,13.8962354 62.3363787,13.8962354 C62.8057148,13.8962354 63.317718,14.0241149 63.7443872,14.1519944 L64.3843911,15.1324036 L65.1950627,15.2176566 L65.7923997,10.4861163 L65.7923997,10.4861163 L65.7923997,10.4861163 Z" id="Path"></path>
                        <path d="M219.777335,10.4861163 L219.777335,10.4861163 L219.777335,10.4861163 C219.734668,10.4861163 219.051997,10.2303574 217.686656,10.2303574 C214.742638,10.2303574 211.670619,14.8766447 211.670619,14.8766447 C211.670619,12.3190553 211.755953,10.1451044 211.755953,10.1451044 L211.414618,10.1451044 L205.398581,12.3616818 L205.398581,13.3847176 C207.659928,13.3847176 208.385266,15.430789 208.385266,18.9261612 L208.385266,28.0908563 L205.611916,29.1565185 L205.611916,30.2648072 L215.297308,30.2648072 L215.297308,29.199145 L212.566625,28.2613623 L211.755953,27.2383265 L211.755953,18.2441373 C211.755953,15.4734155 213.931966,13.8962354 216.321314,13.8962354 C216.79065,13.8962354 217.302653,14.0241149 217.729323,14.1519944 L218.369326,15.1324036 L219.179998,15.2176566 L219.777335,10.4861163 L219.777335,10.4861163 L219.777335,10.4861163 Z" id="Path"></path>
                    </g>
                    <g id="Group" transform="translate(255.574886, 1.108289)">
                        <path d="M88.5338711,18.2015108 C88.5338711,24.0413398 91.8618913,26.4710497 95.6592477,26.4710497 C98.0059287,26.4710497 100.821946,25.4906405 100.821946,25.4906405 L101.248615,26.3005438 C100.224609,27.3235795 97.4085917,29.454904 93.8672369,29.454904 C89.0885412,29.454904 84.7791817,25.8742789 84.7791817,19.3097996 C84.7791817,13.3420911 88.9178735,8.9941892 94.0379046,8.9941892 C98.0485956,8.9941892 101.163281,11.3812726 101.163281,15.9423069 C101.163281,17.1358486 100.949947,18.1588843 100.949947,18.1588843 L88.5338711,18.1588843 L88.5338711,18.2015108 Z M94.7205754,16.6243307 C96.7259209,16.5390778 97.4512586,16.1554394 97.4512586,14.1093679 C97.4512586,12.3616818 96.1712509,10.9976342 93.4832345,10.9976342 C90.6672174,10.9976342 88.5338711,13.4699705 88.5338711,16.8374632 L94.7205754,16.6243307 Z" id="Shape"></path>
                        <path d="M59.9896977,26.0021583 L60.8003693,27.0251941 L63.5310526,27.9629768 L63.4457187,29.0286391 L53.8883273,29.0286391 L53.8883273,27.9203503 L56.6616775,26.8546881 L56.6616775,17.3063546 C56.6616775,13.4273441 55.8936729,12.1485494 53.6323258,12.1485494 L53.6323258,11.1255137 L59.7763631,8.90893622 L60.1176985,8.90893622 C60.1176985,8.90893622 59.9896977,11.8075375 59.9896977,14.8340182 L59.9896977,26.0021583 Z" id="Path"></path>
                        <path d="M73.1311109,9.54833355 L73.1311109,10.6566223 L70.3150938,11.594405 L75.0084556,24.3397253 L79.8724852,11.679658 L76.9284673,10.6566223 L76.9284673,9.54833355 L84.3951793,9.54833355 L84.3951793,10.7418752 C83.2858392,10.7418752 81.9631645,11.2960196 80.4698221,14.8766447 L75.1364564,29.284398 L73.1311109,29.284398 L67.2430751,13.853609 C66.3044028,11.6370315 65.2803965,10.7845017 63.9150549,10.7845017 L63.9150549,9.59096004 L73.1311109,9.59096004 L73.1311109,9.54833355 Z" id="Path"></path>
                        <path d="M122.496744,28.7302536 C122.198076,28.6023742 121.430071,28.1761093 121.387404,27.280953 L121.131402,23.274063 L122.96608,23.274063 C123.478083,26.0021583 125.312761,27.7924709 127.744776,27.7924709 C130.176791,27.7924709 131.15813,26.5136762 131.15813,24.8512431 C131.15813,23.2314365 129.835455,22.4215333 128.256779,21.5690035 L126.123433,20.4607148 C123.051414,18.8835347 121.515405,17.6473665 121.515405,14.6208858 C121.515405,10.8271282 124.246088,9.03681569 128.512781,9.03681569 C131.499465,9.03681569 133.803479,10.1877309 133.803479,10.1877309 L133.248809,15.0897771 L131.542132,15.0897771 C131.542132,12.0206699 130.262125,10.8697547 127.702109,10.8697547 C125.995432,10.8697547 124.374089,11.5517785 124.374089,13.2142116 C124.374089,14.5782593 124.928759,15.1324036 128.256779,16.8800897 L130.134124,17.8604989 C133.590145,19.608185 134.571484,21.1001121 134.571484,23.9560869 C134.571484,27.4088325 131.115463,29.454904 127.744776,29.454904 C125.61143,29.4975304 123.734085,29.2417715 122.496744,28.7302536 Z" id="Path"></path>
                        <path d="M166.27301,13.768356 C165.291671,11.5517785 164.310331,10.6992488 162.94499,10.6992488 L162.94499,9.50570707 L172.033045,9.50570707 L172.033045,10.6139958 L169.217028,11.5517785 L174.081057,24.2970988 L178.518418,11.6370315 L175.5744,10.6139958 L175.5744,9.50570707 L183.425114,9.50570707 L183.425114,10.6992488 C182.315774,10.6992488 180.779765,11.2533931 179.414423,14.8340182 L174.507727,28.2187358 C171.777043,35.3799859 168.449023,39.1737435 163.414326,38.875358 L162.902323,34.7405886 C162.902323,34.7405886 164.05433,35.038974 166.145009,34.8684681 C168.577024,34.6979621 170.966372,32.2256257 171.947711,29.0286391 L166.27301,13.768356 Z" id="Path"></path>
                        <path d="M49.0242978,27.0251941 L48.2136262,26.0021583 L48.2562931,15.3455361 C48.2562931,10.4434898 45.0562737,9.03681569 41.7709204,9.03681569 C38.9975702,9.03681569 35.072213,12.2764289 35.072213,12.2764289 C35.072213,10.5287428 35.1575469,8.90893622 35.1575469,8.90893622 L34.8162115,8.90893622 L28.6721742,11.1255137 L28.6721742,12.1485494 C31.0188551,12.1485494 31.658859,14.2372474 31.658859,18.0310049 L31.658859,26.8546881 L28.8855088,27.9203503 L28.8855088,29.0286391 L38.570901,29.0286391 L38.6562348,27.9629768 L35.9255516,27.0251941 L35.11488,26.0021583 L35.11488,13.9388619 C35.11488,13.9388619 36.6082224,11.9780434 39.2535718,11.9780434 C41.984255,11.9780434 44.8002721,12.9584527 44.8002721,17.60474 L44.6722714,26.9399411 L41.984255,27.9629768 L41.984255,29.0712656 L51.6696472,29.0712656 L51.754981,28.0056033 L49.0242978,27.0251941 Z" id="Path"></path>
                        <path d="M161.40898,26.1300378 C161.40898,26.1300378 160.214307,26.8973146 158.464963,26.8973146 C156.587618,26.8973146 154.838274,25.8316524 154.880941,23.2314365 L155.051609,12.2338024 L160.384974,12.2338024 L160.384974,12.2338024 L160.384974,12.2338024 L160.470308,11.5517785 L160.470308,11.5517785 L160.896977,8.09903293 L160.086306,7.97115346 L159.488969,9.29257462 L159.147633,9.59096004 L155.094275,9.80409249 L155.094275,9.80409249 L155.094275,9.80409249 L155.094275,4.73154029 L152.662261,5.15780518 L151.595588,9.88934547 L148.139567,10.2303574 L148.139567,11.850164 C150.016911,11.850164 151.595588,12.0206699 151.595588,13.8109825 C151.595588,15.601295 151.42492,21.3132445 151.42492,23.5724485 C151.42492,27.8777239 153.046263,29.454904 155.819613,29.454904 C158.166294,29.454904 160.128973,28.4744947 161.878317,27.0678206 L161.40898,26.1300378 Z" id="Path"></path>
                        <path d="M118.784722,9.29257462 L118.784722,9.29257462 L118.784722,9.29257462 C118.742055,9.29257462 118.059384,9.03681569 116.694042,9.03681569 C113.750024,9.03681569 110.678006,13.683103 110.678006,13.683103 C110.678006,11.1255137 110.763339,8.95156271 110.763339,8.95156271 L110.422004,8.95156271 L104.405968,11.1681401 L104.405968,12.1911759 C106.667315,12.1911759 107.392652,14.2372474 107.392652,17.7326195 L107.392652,26.8973146 L104.619302,27.9629768 L104.619302,29.0712656 L114.304694,29.0712656 L114.304694,28.0056033 L111.574011,27.0678206 L110.763339,26.0447848 L110.763339,17.0505956 C110.763339,14.2798738 112.939353,12.7026937 115.328701,12.7026937 C115.798037,12.7026937 116.31004,12.8305732 116.736709,12.9584527 L117.376713,13.9388619 L118.187385,14.0241149 L118.784722,9.29257462 L118.784722,9.29257462 L118.784722,9.29257462 Z" id="Path"></path>
                        <path d="M58.2403538,5.66932305 C57.7710176,5.66932305 55.5950044,3.28223966 55.5950044,2.85597477 C55.5950044,2.42970988 57.7283507,0 58.2403538,0 C58.7950238,0 60.8857032,2.42970988 60.8857032,2.85597477 C60.8857032,3.28223966 58.70969,5.66932305 58.2403538,5.66932305 Z" id="Path"></path>
                        <path d="M144.214209,26.0021583 L145.024881,27.0251941 L147.755564,27.9629768 L147.67023,29.0286391 L138.112839,29.0286391 L138.112839,27.9203503 L140.886189,26.8546881 L140.886189,17.3063546 C140.886189,13.4273441 140.118184,12.1485494 137.856837,12.1485494 L137.856837,11.1255137 L144.000875,8.90893622 L144.34221,8.90893622 C144.34221,8.90893622 144.214209,11.8075375 144.214209,14.8340182 L144.214209,26.0021583 Z" id="Path"></path>
                        <path d="M24.4908154,19.6508115 C24.4908154,26.9399411 19.3281174,29.3270245 14.3360871,29.3270245 C6.86937506,29.3270245 3.7973564,25.8316524 3.7973564,19.352426 L3.7973564,7.11862368 C3.7973564,3.53799859 2.81601711,2.7280953 0,2.60021583 L0,1.19354169 L11.4774031,1.19354169 L11.4774031,2.47233637 L7.55204587,3.70850455 L7.55204587,17.519487 C7.55204587,25.8316524 10.922733,27.0678206 14.7627563,27.0678206 C18.7734474,27.0678206 21.8027991,25.2348815 21.8027991,18.4572698 L21.8027991,13.3420911 L21.8027991,3.70850455 L18.0054427,2.55758934 L18.0054427,1.23616818 L28.1175041,1.23616818 L28.1175041,2.7280953 L25.2588201,3.19698668 L24.4481485,4.22002242 L24.4481485,9.63358653 L24.4908154,19.6508115 Z" id="Path"></path>
                        <path d="M142.464865,5.66932305 C141.995529,5.66932305 139.819516,3.28223966 139.819516,2.85597477 C139.819516,2.42970988 141.952862,0 142.464865,0 C143.019535,0 145.110215,2.42970988 145.110215,2.85597477 C145.110215,3.28223966 142.934202,5.66932305 142.464865,5.66932305 Z" id="Path"></path>
                    </g>
                </g>
            </g>
        </g>
    </g>
</svg>