<?xml version="1.0" encoding="UTF-8"?>
<svg width="44px" height="44px" viewBox="0 0 44 44" version="1.1" xmlns="http://www.w3.org/2000/svg" xmlns:xlink="http://www.w3.org/1999/xlink">
    <title>Group 68</title>
    <g id="Page-1" stroke="none" stroke-width="1" fill="none" fill-rule="evenodd">
        <g id="Homepage" transform="translate(-1243.000000, -6896.000000)">
            <g id="Group-68" transform="translate(1243.000000, 6896.000000)">
                <circle id="Oval" fill="#FFFFFF" cx="22" cy="22" r="22"></circle>
                <path d="M41.0488478,11.2317541 C39.0815467,7.77649429 36.4130285,5.04096031 33.0425907,3.02453505 C29.6716513,1.00800694 25.9915904,0 21.9997993,0 C18.0085099,0 14.327245,1.00831548 10.9570079,3.02453505 C7.58626917,5.04085746 4.91785126,7.77649429 2.95055023,11.2317541 C0.983550186,14.686911 0,18.4599691 0,22.5508255 C0,27.4648722 1.39862181,31.8837088 4.19656775,35.8084668 C6.99421269,39.7335333 10.6083558,42.4495263 15.0386961,43.9567543 C15.5544002,44.0548707 15.9361618,43.9858601 16.184382,43.751471 C16.4327026,43.5167733 16.5567124,43.2228355 16.5567124,42.8708919 C16.5567124,42.8121661 16.5517962,42.2838392 16.5422647,41.2852942 C16.5324322,40.2867492 16.5278169,39.4156321 16.5278169,38.6723543 L15.8689396,38.7891889 C15.4488514,38.8680728 14.9189002,38.9014982 14.2790859,38.8920362 C13.6395726,38.8828828 12.9756787,38.8141808 12.2883073,38.6864444 C11.6006348,38.5598393 10.9610212,38.2662101 10.3689647,37.8061738 C9.77720923,37.3461376 9.35712103,36.7439664 9.10880045,36.0005857 L8.82235387,35.3248785 C8.63142293,34.8750242 8.33082961,34.3752889 7.92017257,33.8275239 C7.50951554,33.2792446 7.09424325,32.9075543 6.67415505,32.7118358 L6.47359228,32.5646612 C6.33995066,32.4668534 6.21594086,32.3488874 6.1012619,32.2119976 C5.98668327,32.0751078 5.90089979,31.9381151 5.84361048,31.8009167 C5.78622083,31.6636155 5.83377798,31.5509977 5.9867836,31.4626518 C6.13978921,31.3743059 6.41630296,31.3314185 6.81752883,31.3314185 L7.39022132,31.4191473 C7.77218353,31.4976199 8.2446448,31.732009 8.80820712,32.1237546 C9.37146844,32.5151916 9.83449855,33.0240803 10.1973978,33.650215 C10.63685,34.4530415 11.1662995,35.0647776 11.7872515,35.4857318 C12.4077018,35.906686 13.033269,36.1168032 13.6633512,36.1168032 C14.2934333,36.1168032 14.8376316,36.0678478 15.2961468,35.9704514 C15.7541603,35.8725407 16.1838804,35.7253661 16.5851062,35.5297505 C16.7569742,34.2176239 17.2249205,33.209617 17.988544,32.5050097 C16.9001473,32.3877637 15.9216137,32.2111748 15.0524415,31.9763743 C14.1837709,31.7412653 13.2861045,31.3597016 12.3600443,30.8306548 C11.4334825,30.3023279 10.6648425,29.6462646 10.0539236,28.8635962 C9.44290451,28.0805165 8.94144742,27.0524543 8.55025471,25.7803354 C8.15886133,24.5077022 7.96311447,23.039659 7.96311447,21.3757945 C7.96311447,19.0067056 8.71760773,16.9906918 10.2262933,15.3266215 C9.51955781,13.545511 9.58627829,11.5488325 10.4266554,9.33679152 C10.9804855,9.16040831 11.8017996,9.29277286 12.8901962,9.73306239 C13.9787936,10.1735576 14.7758274,10.5509046 15.2821004,10.8637662 C15.7883734,11.176525 16.1940139,11.4415627 16.4996238,11.6565136 C18.2759939,11.1477278 20.1091516,10.8932834 21.9995987,10.8932834 C23.8900457,10.8932834 25.7236048,11.1477278 27.5000752,11.6565136 L28.5885722,10.9521121 C29.332932,10.4820997 30.2119367,10.051375 31.2234794,9.65983507 C32.2356241,9.26850088 33.0095817,9.16071685 33.5445495,9.33710007 C34.4035882,11.5492438 34.4801412,13.5458196 33.7732051,15.3269301 C35.2817903,16.9910003 36.0365845,19.0075284 36.0365845,21.376103 C36.0365845,23.0399675 35.8401354,24.5126388 35.449344,25.7950425 C35.0580509,27.0776519 34.5522796,28.1046856 33.9318293,28.8783034 C33.3106766,29.6518184 32.5371204,30.3027393 31.6110602,30.8309633 C30.6847993,31.3595987 29.7868319,31.7411624 28.9181614,31.9762715 C28.0490895,32.2113805 27.0705559,32.3880723 25.9821592,32.505524 C26.9748396,33.386103 27.4712801,34.776085 27.4712801,36.6748529 L27.4712801,42.8700691 C27.4712801,43.2220128 27.5906746,43.5158477 27.8296644,43.7506482 C28.0683531,43.9850373 28.4452988,44.0540479 28.961003,43.9558287 C33.3919452,42.4488063 37.0060883,39.7327105 39.8036329,35.807644 C42.6008765,31.8828861 44,27.4640494 44,22.5500027 C43.9989967,18.4596605 43.0149448,14.686911 41.0488478,11.2317541 Z" id="Path" fill="#292929" fill-rule="nonzero"></path>
            </g>
        </g>
    </g>
</svg>